<?xml version="1.0" encoding="UTF-8"?>
<svg xmlns="http://www.w3.org/2000/svg" version="1.1" viewBox="0 0 441.92 412.48">
  <defs>
    <style>
      .cls-1 {
        fill: #227fc3;
      }

      .cls-2 {
        font-size: 104.78px;
      }

      .cls-2, .cls-3, .cls-4, .cls-5 {
        fill: #646262;
      }

      .cls-2, .cls-4, .cls-6, .cls-5 {
        display: none;
      }

      .cls-2, .cls-5 {
        font-family: Arial-Mdm, Arial;
        font-weight: 500;
      }

      .cls-7 {
        fill: #e22028;
      }

      .cls-8 {
        fill: #fff;
      }

      .cls-4 {
        font-family: Arial-BoldMT, Arial;
        font-size: 243.69px;
        font-weight: 700;
      }

      .cls-9 {
        fill: #231f20;
        font-family: MyriadPro-Regular, 'Myriad Pro';
        font-size: 12px;
      }

      .cls-5 {
        font-size: 48px;
        letter-spacing: .2em;
      }
    </style>
  </defs>
  <!-- Generator: Adobe Illustrator 28.7.1, SVG Export Plug-In . SVG Version: 1.2.0 Build 142)  -->
  <g>
    <g id="Layer_3" class="cls-6">
      <g>
        <g>
          <polygon class="cls-1" points="359.86 54.23 359.86 128.42 444.7 128.45 444.7 54.23 359.86 54.23"/>
          <path class="cls-1" d="M603.81-73.07l.03,21.24h74.12l.07-84.87h-265.26s-52.91,1.7-52.91,53.22c0,51.52,0,116.11,0,116.11h63.44l.2-84.66s-2.02-21.3,21.14-21.3,159.17.26,159.17.26Z"/>
          <path class="cls-1" d="M678.03,32.96V.83l-74.02.52v31.61s-.13,20.95-21.21,21.21c-21.08.26-85.21,0-85.21,0l.13,74.22h105.9s69.21,6.18,74.41-95.42Z"/>
          <path class="cls-7" d="M762.85,17.31V-52.02l-159.01.22-106.38-.22s-52.05-6.2-52.76,69.33,0,208.71,0,208.71h254.93s62.97,7.66,63.23-69.78c.26-77.44,0-115.95,0-115.95h-72.85l-1.04,92.97s3.12,22.98-21.34,23.26-159.37-.28-159.37-.28V63.83s0-23.55,0-23.55c0,0-1.52-21.35,10.69-22.34,12.21-.99,84.73-.14,84.73-.14l74.35-.23,84.82-.26Z"/>
        </g>
        <rect class="cls-8" x="689.08" y="39.29" width="75.06" height="8"/>
      </g>
    </g>
    <g id="Layer_8">
      <g>
        <g>
          <rect class="cls-1" x="54.18" y="223.67" width="74.11" height="46.23"/>
          <path class="cls-1" d="M322.53,121.81l-46.33.09.05-27.78-148.07.02s-27.3-.53-27.57,27.76-.28,64.72-.28,64.72h-46.15v-92.51c-.73-5.08,6.81-47.12,46.84-46.25,47.65,1.03,221.52,0,221.52,0v73.94Z"/>
          <path class="cls-1" d="M276.25,269.95s43.26-4.05,46.29-54.83v-47.57h-46.29v38.02s1.65,18.03-18.18,18.11-83.62-.2-83.62-.2l.03,46.48"/>
          <path class="cls-7" d="M396.58,121.81l.07,46.43h-203.79s-18.46-1.01-18.41,18.39c.05,19.4,0,110.69,0,110.69h148.09s27,3.69,27.41-27.36.41-64.8.41-64.8l46.29.14v92.16s-1.52,46.56-46.15,46.43c-44.63-.14-222.21,0-222.21,0v-157.25c.34,3.2,2.73-62.68,45.87-65.09,48.28-2.69,222.41.28,222.41.28Z"/>
        </g>
        <text class="cls-4" transform="translate(466.96 223.67)"><tspan x="0" y="0">BEAS</tspan></text>
        <text class="cls-2" transform="translate(485.02 343.88)"><tspan x="0" y="0">Consultancy &amp; Services Pvt. Ltd.</tspan></text>
        <g class="cls-6">
          <path class="cls-3" d="M481.2,387.24c467.74-1.3,992.42-1.31,1460.16,0-467.74,1.31-992.42,1.3-1460.16,0h0Z"/>
        </g>
        <text class="cls-5" transform="translate(483.48 468.12)"><tspan x="0" y="0">PROVIDING EFFECTIVE IT SOLUTIONS,ALWAYS...</tspan></text>
        <text class="cls-9" transform="translate(1105.76 795.84)"><tspan x="0" y="0">Lorem ipsum</tspan></text>
      </g>
    </g>
  </g>
</svg>